<?xml version="1.0" standalone="no"?>
<!DOCTYPE svg PUBLIC "-//W3C//DTD SVG 20010904//EN"
 "http://www.w3.org/TR/2001/REC-SVG-20010904/DTD/svg10.dtd">
<svg version="1.0" xmlns="http://www.w3.org/2000/svg"
 width="700.000000pt" height="700.000000pt" viewBox="0 0 700.000000 700.000000"
 preserveAspectRatio="xMidYMid meet">
<metadata>
Created by potrace 1.14, written by Peter Selinger 2001-2017
</metadata>
<g transform="translate(0.000000,700.000000) scale(0.100000,-0.100000)"
fill="#000000" stroke="none">
<path d="M3338 6984 c-52 -11 -1093 -394 -1183 -435 -11 -5 -207 -79 -435
-164 -228 -86 -548 -206 -710 -267 -162 -61 -349 -131 -415 -155 -66 -24 -129
-48 -140 -53 -11 -5 -47 -19 -80 -31 -33 -11 -79 -29 -102 -40 -24 -10 -47
-19 -53 -19 -28 0 -125 -58 -155 -93 -70 -82 -65 158 -65 -2812 0 -3017 -7
-2745 76 -2830 82 -84 40 -80 729 -80 608 0 610 0 656 22 57 28 104 75 132
133 l21 45 1 1485 0 1485 1885 0 1885 0 1 -1485 c1 -1367 2 -1488 18 -1523 22
-51 81 -114 130 -140 41 -22 43 -22 656 -22 695 0 651 -5 736 80 81 81 74
-125 74 2304 l-1 2166 -23 48 c-47 95 -119 146 -220 154 -116 10 -215 -44
-266 -143 l-25 -49 -2 -1910 c-1 -1050 -2 -1958 -3 -2017 l0 -108 -268 0 -268
0 0 1998 c0 1635 -2 2006 -13 2045 -24 84 -114 166 -202 183 -19 3 -1020 6
-2224 6 l-2191 0 -52 -22 c-58 -25 -123 -89 -148 -147 -15 -35 -16 -202 -18
-2048 l-1 -2010 -267 -3 -268 -2 0 137 c0 263 0 3990 0 4348 l0 360 158 58
c86 32 171 65 187 72 17 7 50 20 75 28 25 8 77 27 115 42 39 15 106 40 150 57
44 16 89 34 100 39 11 5 58 22 105 39 47 17 94 34 105 39 11 5 72 28 135 51
63 23 124 46 135 51 11 5 250 95 530 200 281 105 641 240 800 301 336 127 362
132 475 95 68 -23 396 -145 445 -166 38 -17 291 -111 297 -111 3 0 23 -8 44
-17 22 -9 44 -18 49 -19 6 -2 172 -64 370 -139 198 -75 376 -142 395 -149 19
-7 211 -79 425 -160 215 -81 406 -153 425 -160 19 -7 163 -62 320 -121 264
-101 290 -109 355 -109 151 0 259 108 260 260 0 73 -9 102 -53 162 -37 52 -81
73 -357 176 -143 54 -269 101 -280 106 -24 10 -632 239 -720 270 -33 12 -69
26 -80 31 -11 5 -308 117 -660 249 -352 132 -656 247 -675 254 -112 46 -405
152 -465 169 -91 25 -275 31 -367 11z m2032 -2753 c13 -1 15 -36 15 -258 1
-142 -2 -260 -6 -263 -4 -3 -853 -5 -1886 -5 l-1878 0 0 262 c0 220 2 263 14
265 12 3 3699 1 3741 -1z"/>
<path d="M2075 2694 c-66 -34 -104 -97 -105 -170 0 -62 20 -108 97 -224 39
-58 119 -179 178 -270 60 -91 160 -243 223 -339 l114 -174 2 -431 1 -431 25
-43 c71 -125 225 -110 277 26 14 38 16 92 16 439 l0 395 92 152 c51 83 162
266 247 406 85 140 176 290 202 333 36 59 49 91 53 133 18 171 -149 279 -258
167 -20 -21 -132 -200 -249 -398 -117 -198 -219 -368 -225 -378 -11 -16 -29 9
-149 200 -318 506 -372 586 -407 605 -41 22 -94 23 -134 2z"/>
<path d="M4048 2687 c-372 -88 -574 -383 -502 -733 52 -252 240 -407 574 -471
283 -54 389 -90 469 -159 111 -96 115 -248 8 -340 -88 -74 -217 -113 -362
-108 -152 5 -280 53 -422 157 -80 59 -95 67 -140 69 -68 2 -144 -54 -164 -122
-28 -92 15 -176 135 -267 128 -96 280 -156 456 -179 58 -8 281 -7 317 0 15 4
39 8 52 11 217 41 418 184 505 360 84 170 70 452 -30 596 -95 137 -256 218
-564 284 -397 85 -493 146 -493 315 -1 103 39 165 138 213 183 89 459 52 666
-89 38 -26 85 -50 106 -54 123 -21 227 135 168 250 -34 66 -152 157 -265 205
-134 57 -232 77 -400 81 -135 3 -168 1 -252 -19z"/>
</g>
</svg>
