<svg version="1.1" viewBox="0 0 1920 530" xmlns="http://www.w3.org/2000/svg"><path d="m296.7 0.04212c-5.279-0.1614-11 0.139-17.19 0.9344l-228.4 30.13c-27.83 3.572-58.32 22.49-49.59 78.96l30.4 177.8c4.786 36.64 18.42 62.38 66.21 62.38h291.3c-11.68-98.46-25.15-196-36.83-294.5-3.689-31.1-18.94-54.62-55.9-55.75z" fill="#e64b07"/><path d="m93.65 4.435v52.61h19.77c6.915 0 10.86 3.402 10.86 10.71v282.5h62.74v-114c0-11.69 0.989-22.4 3.953-32.15 9.386-30.2 35.07-51.64 68.16-51.64 31.61 0 40.01 20.46 40.01 50.66v25.53a19.19 26.39 30.86 0 1 28.57-11.12 19.19 26.39 30.86 0 1 3.371 32.32 19.19 26.39 30.86 0 1-29.97 13.26 19.19 26.39 30.86 0 1-1.971-1.375v55.36c0 23.38 9.886 33.12 33.1 33.12h59.76v-52.12h-19.76c-6.915 0-10.87-3.889-10.87-10.71v-96.93c0-65.76-31.61-94.49-87.92-94.49-43.47 0-74.59 25.32-86.44 49.19h-0.9912s0.9912-8.766 0.9912-20.94v-87.19c0-22.41-10.37-32.63-33.59-32.63zm139.1 176a16.44 16.39 0 0 1 16.44 16.39 16.44 16.39 0 0 1-16.44 16.39 16.44 16.39 0 0 1-16.44-16.39 16.44 16.39 0 0 1 16.44-16.39zm41.53 6.476a16.44 16.39 0 0 1 16.43 16.38 16.44 16.39 0 0 1-16.43 16.39 16.44 16.39 0 0 1-16.44-16.39 16.44 16.39 0 0 1 16.44-16.38zm-62 47.16c1.092 0.0618 2.377 0.8722 3.858 2.599 8.381 9.776 31.65 13.36 62.9 0.0437 19.26-11.35-16.07 57.15-43.25 61.89-26.4 4.599-34.06-65.13-23.5-64.53z" fill="#fff"/><path d="m954.8 295.8c0 38.71 31.3 60.34 65.62 60.34 43.37 0 58.07-34.15 58.07-34.15h0.7538s-0.383 3.415-0.383 8.349c0 11.38 6.788 21.25 24.51 21.25h42.99v-40.61h-15.08c-5.279 0-8.296-3.036-8.296-8.349v-72.1c0-43.26-18.85-77.04-82.96-77.04-19.99 0-70.52 3.795-70.52 39.85v20.49h44.5v-10.25c0-10.63 16.97-12.9 25.64-12.9 32.64-1.062 35.16 19.96 35.45 39.47-79.15 3.788-116.7 18.74-120.3 65.65zm48.27-2.277c1.715-30.3 38.95-30.14 72.78-30.36-1.477 30.32-22.51 54.56-43.74 55.41-19.61 0-29.04-12.14-29.04-25.05zm-372.5 58.06h47.51v-85.01c2.242-43.39 22.11-68.21 49.4-69.07 23 0 26.02 17.84 26.02 38.71v115.4h47.89v-85.01c1.063-37.8 21.34-68.19 49.02-69.07 22.25 0 26.4 16.7 26.4 38.71v89.56c0 18.22 7.542 25.81 25.64 25.81h45.25v-40.61h-14.71c-5.28 0-8.296-3.036-8.296-8.349v-75.52c0-50.85-23-73.62-62.98-73.62-30.55 0-55.43 18.97-65.62 39.85h-0.7543c-8.296-26.18-27.15-39.85-56.19-39.85-30.17 0-53.17 21.25-62.22 40.23h-0.7543c0.4102-5.07 0.3829-8.806 0.3829-14.04 0-13.66-8.296-21.63-25.27-21.63h-44.12v40.98h15.08c5.28 0 8.296 2.656 8.296 8.349zm-228.8-69.07c0 52.75 25.27 73.62 66.37 73.62 33.19 0 57.32-20.11 66.37-40.23h0.7543c-0.3993 5.168-0.3829 8.729-0.3829 14.04 0 13.66 8.673 21.63 25.27 21.63h44.12v-40.61h-15.08c-5.279 0-8.296-3.036-8.296-8.349v-144.6h-47.89v88.8c0 34.53-19.23 65.27-53.93 65.27-23.76 0-29.79-15.94-29.79-39.47v-89.18c0-17.46-7.542-25.43-25.27-25.43h-45.63v40.98h15.08c5.28 0 8.296 2.656 8.296 8.349zm968.9 37.52s26.93 33.89 79.28 33.89c41.51 0 73.3-22.34 73.3-58.09 0-63.3-101.3-57.34-101.3-87.13 0-11.17 11.59-17.13 28.42-17.13 10.47 0 23.94 4.468 23.94 13.41v9.309h41.89v-19.74c0-30.91-41.14-39.47-66.94-39.47-39.64 0-74.05 17.5-74.05 55.48 0 61.44 100.6 61.07 100.6 87.88 0 12.66-11.22 18.62-25.8 18.62-32.54 0-56.85-27.93-56.85-27.93zm-202.8 29.42h47.12v-87.13c0.5361-47.59 25.7-63.35 54.98-64.05 23.93 0 29.92 15.64 29.92 38.73v87.13c0 17.87 7.479 25.32 25.43 25.32h45.25v-39.84h-14.96c-5.236 0-8.228-2.979-8.228-8.192v-74.1c0-50.27-24.31-72.24-66.57-72.24-38.52 0-59.09 23.46-67.32 39.47h-0.7478c0.7998-4.963 0.7478-8.615 0.7478-13.78 0-13.41-8.228-21.23-25.06-21.23h-43.76v40.22h14.96c5.236 0 8.228 2.607 8.228 8.192z" fill="#4e4e4e"/><path d="m1588 108.7v52.62h-26.4v21.57h26.01v99.55c0 63.59 46.09 70.78 68.94 70.78 6.698 0 11.43-0.7626 11.43-0.7626v-0.7518h19.47l55.16-81.38h0.7937l54.76 81.38h31.52l-69.35-99.17 42.95-61.32c4.334-6.434 10.24-7.572 18.51-7.572l17.5-0.7626v99.55c0 63.59 46.1 70.78 68.95 70.78 6.698 0 11.42-0.7626 11.42-0.7626v-23.08s-3.538 0.7518-9.054 0.7518c-14.97 0-44.53-5.677-44.53-50.34v-96.9h49.64v-21.57h-49.64v-52.62h-26.4v52.62h-26.4v0.0553c-18.53 0.2724-23.48 4.033-34.83 20.76l-35.07 53.74h-0.7937l-35.06-53.74c-11.82-17.79-16.95-20.81-37.04-20.81h-56.12v-52.62zm26.4 74.18h41.54v0.7626h8.281c7.88 0 13.39 1.513 18.12 7.948l42.95 60.94-57.29 82.4v-5.563s-3.548 0.7518-9.063 0.7518c-14.97 0-44.53-5.677-44.53-50.34zm-79.51 168.8h29.64v-30.28h-29.64z" fill="#7a7a7a"/><path d="m1851 493.4s8.194 11.67 25.51 11.67c13.22 0 23.26-7.556 23.26-18.69 0-22.14-37.27-18.69-37.27-33.67 0-6.495 5.55-9.677 14.8-9.677 4.361 0 11.5 1.856 11.5 6.76v3.181h8.458v-5.7c0-9.412-13.48-12.06-20.22-12.06-13.35 0-23.66 5.965-23.66 18.03 0 21.47 37.27 18.82 37.27 33.4 0 7.026-6.607 10.6-14.01 10.6-13.08 0-20.48-10.07-20.48-10.07zm-70.97-23.2c0 20.55 15.07 34.86 34.76 34.86 15.07 0 24.71-9.544 24.71-9.544l-4.361-6.76s-7.798 8.219-19.96 8.219c-13.74 0-25.51-9.677-25.77-26.51h51.01s0.2626-2.916 0.2626-4.507c0-16.57-9.515-30.75-27.88-30.75-17.84 0-32.77 13.12-32.77 35zm9.78-6.893c2.247-13.39 11.89-20.55 22.86-20.55 9.78 0 18.24 6.761 18.77 20.55zm-83.92 40.17h8.987v-31.95c0-3.182 0.2626-6.23 1.057-9.014 3.04-11 12.82-18.82 24.18-18.82 12.82 0 14.4 9.279 14.4 19.75v31.95c0 5.7 2.378 8.086 8.061 8.086h9.384v-7.821h-5.55c-1.851 0-2.908-0.928-2.908-2.916v-31.68c0-16.44-5.815-25.85-22.33-25.85-15.59 0-24.05 10.74-26.43 16.84h-0.2625c0.2899-2.901 0.2572-4.797 0.2625-7.821 0-5.037-2.511-7.423-8.062-7.423h-9.25v7.821h5.55c1.85 0 2.907 1.06 2.907 2.916zm-32.77-81.79h8.722v-11.4h-8.722zm0.2626 73.7c0 5.7 2.379 8.086 8.062 8.086h9.383v-7.821h-5.55c-1.85 0-2.908-0.928-2.908-2.916v-47.85c0-5.7-2.378-8.086-8.061-8.086h-9.383v7.821h5.55c1.851 0 2.907 1.06 2.907 2.916zm-81.01 8.086h8.986v-31.95c0-3.182 0.2626-6.23 1.057-8.882 3.04-11.14 12.82-18.96 24.05-18.96 12.95 0 14.54 9.279 14.54 19.75v31.95c0 5.7 2.379 8.086 8.061 8.086h9.383v-7.821h-5.551c-1.85 0-2.907-0.928-2.907-2.916v-31.68c0-16.44-5.815-25.85-22.33-25.85-14.93 0-23.79 10.21-26.3 16.57h-0.2626c0.3993-6.494 0.2626-12.22 0.2626-33.67 0-5.435-2.378-7.821-8.061-7.821h-9.383v7.821h5.55c1.85 0 2.907 1.06 2.907 2.916zm-75.2-33.27c0 20.68 15.07 34.86 34.89 34.86 17.05 0 26.03-10.87 26.03-10.87l-4.229-6.76s-7.798 9.412-21.41 9.412c-14.01 0-26.03-10.21-26.03-26.64 0-16.17 11.5-26.91 25.77-26.91 5.55 0 15.2 2.651 15.2 8.218v3.844h8.458v-5.965c0-11-16.12-14.18-23.66-14.18-19.82 0-35.02 14.58-35.02 35zm-69.91 15.11c0 13.26 11.5 19.75 22.6 19.75 16.65 0 22.2-14.45 22.07-14.45h0.2626s-0.1314 1.988-0.1314 4.905c0 5.435 2.247 7.954 7.929 7.954h9.119v-7.821h-5.551c-1.85 0-2.907-0.928-2.907-2.916v-31.95c0-14.32-5.022-25.58-26.03-25.58-5.814 0-21.67 1.988-21.67 11.27v6.363h8.59v-4.242c0-4.905 9.648-5.833 12.95-5.833 15.64 0.2631 17.05 9.484 17.18 19.62-26.57 2.284-44.4 8.416-44.4 22.93zm9.251-0.53c0-14.98 20.88-15.24 31.32-15.24h3.833v3.049c0 11.53-7.666 24.79-20.35 24.79-9.911 0-14.8-6.363-14.8-12.59zm-123.3 18.69h8.854c5.683 0 7.665-2.386 8.061-8.086 1.319-23.3 4.514-46.51 4.758-69.86h0.2625c7.207 20.76 17.52 40.5 26.83 60.58h8.325c8.675-20.21 19.99-39.36 26.83-60.31h0.2625c0.5306 22.99 2.966 46.34 4.758 69.59 0.3993 5.7 2.379 8.086 8.062 8.086h8.986v-8.219h-5.022c-1.851 0-2.776-0.9279-2.907-2.916l-6.476-82.05h-9.383c-9.425 21.85-20.39 43.05-29.07 65.22h-0.2626c-8.909-21.43-19.33-43.42-29.21-65.22h-9.383l-6.476 82.05c-0.1314 1.988-1.057 2.916-2.908 2.916h-4.89zm-70.84-24.26c0 22.27 15.46 24.79 23.13 24.79 2.247 0 3.833-0.2659 3.833-0.2659v-8.086s-1.19 0.2653-3.04 0.2653c-5.022 0-14.93-1.988-14.93-17.63v-33.94h16.65v-7.556h-16.65v-18.43h-8.854v18.43h-8.854v7.556h8.722zm-87.75-9.412c0 20.15 15.73 35.26 35.15 35.26 19.29 0 35.02-15.11 35.02-35.26 0-19.75-15.73-34.6-35.15-34.6-19.29 0-35.02 14.85-35.02 34.6zm9.25 0c0-15.11 11.63-26.38 25.9-26.38 14.14 0 25.77 11.27 25.77 26.38 0 15.51-11.63 27.17-25.77 27.17-14.27 0-25.9-11.67-25.9-27.17zm-108.8 33.67h9.779c5.683 0 8.062-2.386 8.062-8.086-0.7855-23.43 1.418-47.02-0.7931-70.39h0.2626c16.9 26.65 36.51 52.45 55.11 78.48h8.458v-82.05c0-1.988 1.057-2.916 2.907-2.916h5.683v-8.219h-9.779c-5.683 0-8.062 2.386-8.062 8.086 0.6383 23.49-1.159 47.08 0.6613 70.52h-0.2626c-16.63-26.84-36.38-52.57-54.98-78.61h-8.458v82.05c0 1.988-1.057 2.916-2.907 2.916h-5.682zm-59.34-10.87-7.533 23.73h7.533l9.648-23.73zm-77.71-22.4c0 20.55 15.07 34.86 34.76 34.86 15.07 0 24.71-9.544 24.71-9.544l-4.361-6.76s-7.797 8.219-19.96 8.219c-13.74 0-25.51-9.677-25.77-26.51h51.01s0.2626-2.916 0.2626-4.507c0-16.57-9.516-30.75-27.88-30.75-17.84 0-32.78 13.12-32.78 35zm9.78-6.893c2.246-13.39 11.89-20.55 22.86-20.55 9.779 0 18.24 6.761 18.77 20.55zm-36.08 32.08c0 5.7 2.378 8.086 8.061 8.086h9.383v-7.821h-5.551c-1.85 0-2.907-0.928-2.907-2.916v-74.37c0-5.7-2.378-8.086-8.061-8.086h-9.383v7.821h5.55c1.851 0 2.908 1.06 2.908 2.916zm-76.25 34.6h8.987c-0.2735-12.5 0.4978-25.03-0.2626-37.51h0.2626s5.55 12.59 21.81 12.59c17.18 0 29.73-13.79 29.73-34.86 0-20.68-11.1-35-28.94-35-17.58 0-22.86 13.12-22.86 13.12h-0.2626s0.1312-1.856 0.1312-4.507c0-4.639-2.247-7.026-7.929-7.026h-9.12v7.821h5.551c1.85 0 2.907 1.06 2.907 2.916zm8.722-59.65c0-18.96 10.44-26.91 21.54-26.91 12.42 0 21.01 10.47 21.01 26.78 0 16.97-9.647 26.91-21.41 26.91-13.88 0-21.15-13.39-21.15-26.78zm-95.68-0.5301c0 20.15 15.73 35.26 35.15 35.26 19.29 0 35.02-15.11 35.02-35.26 0-19.75-15.73-34.6-35.15-34.6-19.29 0-35.02 14.85-35.02 34.6zm9.25 0c0-15.11 11.63-26.38 25.9-26.38 14.14 0 25.77 11.27 25.77 26.38 0 15.51-11.63 27.17-25.77 27.17-14.27 0-25.9-11.67-25.9-27.17zm-81.67 0.3977c0 20.55 15.07 34.86 34.76 34.86 15.07 0 24.71-9.544 24.71-9.544l-4.362-6.76s-7.797 8.219-19.96 8.219c-13.74 0-25.51-9.677-25.77-26.51h51.01s0.2625-2.916 0.2625-4.507c0-16.57-9.516-30.75-27.88-30.75-17.84 0-32.78 13.12-32.78 35zm9.779-6.893c2.247-13.39 11.89-20.55 22.86-20.55 9.779 0 18.24 6.76 18.77 20.55zm-74.8 40.17h9.251v-36.59h21.41c16.52 0 28.68-11.14 28.68-28.5 0-17.23-12.16-28.1-28.68-28.1h-39.25v8.219h8.59zm9.251-44.81v-40.17h20.35c12.16 0 20.22 7.291 20.22 19.88 0 12.73-8.062 20.28-20.35 20.28zm-126.5 11.53c0 20.55 15.07 34.86 34.76 34.86 15.07 0 24.71-9.544 24.71-9.544l-4.361-6.76s-7.797 8.219-19.96 8.219c-13.74 0-25.51-9.677-25.77-26.51h51.01s0.2626-2.916 0.2626-4.507c0-16.57-9.515-30.75-27.88-30.75-17.84 0-32.78 13.12-32.78 35zm9.78-6.893c2.247-13.39 11.89-20.55 22.86-20.55 9.779 0 18.24 6.76 18.77 20.55zm-48.77 40.17h8.987v-28.1c0-4.242 0.5306-8.749 1.85-12.99 2.907-9.809 9.912-17.23 19.29-17.23 1.718 0 3.303 0.2659 3.303 0.2659v-8.882s-1.717-0.3977-3.568-0.3977c-10.44 0-17.84 7.688-21.01 17.76h-0.2626c0.3282-3.403 0.2626-5.891 0.2626-9.544 0-5.302-2.511-7.556-8.062-7.556h-9.251v7.821h5.551c1.85 0 2.907 1.06 2.907 2.916zm-96.74 0h4.361c6.608 0 8.458-1.326 10.84-7.688l8.194-22h36.87l8.062 22c2.379 6.363 4.361 7.688 10.97 7.688h4.229v-8.219h-1.585c-2.511 0-3.833-0.3977-4.758-2.916l-30.4-82.05h-9.912l-30.4 82.05c-0.925 2.519-2.379 2.916-4.757 2.916h-1.718zm25.9-37.78c5.36-15.08 11.54-29.88 15.73-45.34h0.2626c4.133 15.39 10.28 30.23 15.86 45.34zm-130.6 4.507c0 20.55 15.07 34.86 34.76 34.86 15.07 0 24.71-9.544 24.71-9.544l-4.361-6.76s-7.797 8.219-19.96 8.219c-13.74 0-25.51-9.677-25.77-26.51h51.01s0.2626-2.916 0.2626-4.507c0-16.57-9.515-30.75-27.88-30.75-17.84 0-32.77 13.12-32.77 35zm9.779-6.893c2.247-13.39 11.89-20.55 22.86-20.55 9.78 0 18.24 6.76 18.77 20.55zm-102.9 40.17h10.97l22.33-78.61h0.2626l20.35 78.61h10.97l21.41-82.05c0.6608-2.519 2.247-2.916 4.89-2.916h1.454v-8.219h-4.097c-6.608 0-9.648 1.193-11.23 7.688l-18.24 74.23h-0.2626l-20.75-81.52h-9.118l-23 81.52h-0.2626l-18.11-74.23c-1.586-6.495-4.625-7.688-11.23-7.688h-4.097v8.219h1.585c2.511 0 4.229 0.3977 4.89 2.916z" fill="#4e4e4e"/></svg>
