<svg version="1.1" viewBox="0 0 180 32" xmlns="http://www.w3.org/2000/svg"><path d="m7.439 17.49v13.3c0 0.668-0.5509 1.209-1.231 1.209h-4.923c-0.68 0-1.231-0.5414-1.231-1.209v-24.19c0-0.501 0.3143-0.9501 0.7904-1.129 0 0 10.71-4.033 13.89-5.231 0.8507-0.3205 1.792-0.3205 2.643 0 3.181 1.198 13.89 5.231 13.89 5.231 0.6342 0.2389 0.9517 0.9388 0.7087 1.562-0.2432 0.6235-0.9553 0.9356-1.589 0.6967 0 0-10.71-4.033-13.89-5.231-0.2836-0.1068-0.5973-0.1068-0.8808 0l-13.1 4.933v22.15h2.462v-18.14c0-0.668 0.5509-1.21 1.231-1.21h19.69c0.6797 0 1.231 0.5417 1.231 1.21v18.14h2.462v-18.14c0-0.6677 0.5513-1.21 1.231-1.21 0.6792 0 1.231 0.542 1.231 1.21v19.35c0 0.668-0.551 1.209-1.231 1.209h-4.923c-0.6797 0-1.231-0.5414-1.231-1.209v-13.3zm17.23-2.419v-2.419h-17.23v2.419z"/><path d="m69.87 29.81c-0.6894 0.7358-1.961 0.5138-2.445-0.3353-0.6094-1.235-1.101-2.528-1.662-3.787h-8.42c-0.552 1.269-1.062 2.559-1.642 3.813-0.544 1.028-2.356 1.044-2.723-0.1357-0.3207-0.9206 0.3227-1.745 0.606-2.581 2.16-5.183 4.313-10.37 6.478-15.55 0.4663-1.18 2.227-1.34 2.957-0.3393 0.5459 1.014 0.9188 2.119 1.389 3.172 1.955 4.678 3.941 9.344 5.876 14.03 0.1816 0.5854 0.05583 1.294-0.4147 1.712zm-11.14-7.369h5.645l-2.837-6.609zm-13.41 7.68c1.042 0.01924 1.782-1.046 1.638-2.028v-6.577c1.997-2.876 4.026-5.732 6.003-8.621 0.5529-0.9849-0.02394-2.391-1.169-2.593-0.9181-0.2232-1.598 0.5284-2.016 1.236l-4.368 6.39c-1.704-2.34-3.385-4.698-5.103-7.027-0.6249-0.8651-1.935-0.7795-2.607-0.02584-0.7917 0.7584-0.4236 1.98 0.2379 2.689l5.689 7.562c0.0036 2.474-0.0072 4.948 0.0053 7.422 0.03784 0.861 0.8231 1.602 1.689 1.572zm44.34-0.48c-1.131 1.118-3.015 0.2645-3.73-0.9344-0.8863-1.25-0.7478-2.829-0.9397-4.264-0.3429-1.347-1.868-1.625-3.053-1.522l-4.701 0.0017c-0.01581 1.942 0.03215 3.887-0.02472 5.828-0.1288 1.726-2.507 1.715-3.262 0.4718-0.4433-0.8886-0.1639-1.932-0.2426-2.893 0.0051-4.81-0.01035-9.621 0.0077-14.43 0.05434-1.161 1.272-1.696 2.294-1.543 2.758 0.02902 5.521-0.06014 8.275 0.04853 3.347 0.4233 5.598 4.146 4.725 7.341-0.398 1.437-1.321 2.736-2.57 3.556 1.349 0.8664 1.981 2.455 2.045 4.005-0.4831 1.723 1.783 2.188 1.496 3.759-0.05632 0.2163-0.1735 0.4106-0.3212 0.5753zm-6.24-16.04h-6.184v6.409c2.145-0.01884 4.294 0.03804 6.436-0.02912 1.616-0.6694 2.034-2.783 1.744-4.346-0.2239-0.9357-0.9445-1.993-1.996-2.034zm18.29-3.265c-0.1815-2.56e-4 -0.3628 6e-3 -0.5441 0.01839-2.228 0.01977-4.462-0.04155-6.687 0.02941-1.126 0.1672-1.496 1.373-1.371 2.357 0.0051 5.279-0.01073 10.56 0.0073 15.83 0.05434 1.161 1.272 1.698 2.294 1.544h6.169c3.01 0.1397 5.92-1.647 7.221-4.353 1.753-3.599 1.714-8.136-0.3088-11.62-1.364-2.394-4.058-3.805-6.779-3.809zm-5.074 3.265h4.658c0.8797-0.0043 1.779 0.1883 2.522 0.6765 2.392 1.594 2.784 4.824 2.463 7.463-0.2244 2.215-1.541 4.671-3.934 5.04-1.893 0.1815-3.808 0.05159-5.71 0.09192z" fill="#acd9b2"/><path d="m160.7 29.59c-0.3514 0.3514-0.7881 0.5271-1.31 0.5271-0.502 0-0.9237-0.1756-1.265-0.5271-0.3413-0.3514-0.512-0.7881-0.512-1.31v-18.61c0-0.522 0.1756-0.9587 0.5271-1.31 0.3514-0.3514 0.7881-0.5271 1.31-0.5271 0.522 0 0.9487 0.1757 1.28 0.5271 0.3313 0.3514 0.497 0.7881 0.497 1.31v18.61c0 0.522-0.1756 0.9587-0.5271 1.31zm-29.24 0.07529c-2.428 1.028-5.218 0.9364-7.71 0.1922-1.329-0.4614-2.598-1.213-3.536-2.268-0.761-0.9144-0.3507-2.49 0.8237-2.82 1.092-0.3963 1.856 0.6229 2.693 1.108 1.734 1.133 4.011 1.387 5.967 0.7304 1.092-0.3764 2.282-1.313 2.059-2.603-0.1763-1.541-1.789-2.225-3.1-2.576-1.937-0.4747-4.025-0.5392-5.774-1.602-1.715-0.9206-2.757-2.828-2.73-4.759-0.1056-1.926 0.8364-3.853 2.455-4.916 2.408-1.604 5.555-1.741 8.28-0.9698 1.389 0.4524 2.839 1.084 3.745 2.275 0.8132 1.133-0.2787 2.916-1.661 2.68-0.8322-0.2569-1.442-0.9893-2.3-1.233-1.802-0.7892-3.992-1.053-5.78-0.09413-1.395 0.661-1.61 2.8-0.3672 3.716 1.358 0.9891 3.104 1.118 4.694 1.491 2.018 0.4644 4.349 1.065 5.466 2.989 0.8157 1.523 0.9121 3.406 0.3999 5.044-0.5789 1.673-2.026 2.937-3.624 3.615zm40.94-15.97c-2.751-0.05708-5.44 1.55-6.754 3.967-1.162 2.091-1.36 4.643-0.8162 6.949 0.6206 2.581 2.704 4.714 5.257 5.426 0.9076 0.2672 1.857 0.3788 2.801 0.3787 1.857-0.01525 3.762-0.5651 5.221-1.739 0.7672-0.542 1.041-1.761 0.3052-2.449-0.6953-0.7429-1.835-0.4458-2.566 0.07719-1.246 0.8452-2.874 0.947-4.312 0.6507-1.72-0.418-3.093-1.912-3.408-3.647 3.362-3e-3 6.723 0.0032 10.08-0.0073 0.9724-0.02594 1.688-0.8819 1.688-1.923-0.0956-3.754-3.158-7.298-6.949-7.647-0.1835-0.01882-0.3681-0.03296-0.5515-0.03677zm-0.2868 3.32c0.2907-3e-3 0.5819 0.0166 0.8603 0.05515 1.547 0.2643 3.115 1.548 3.077 3.224h-7.893c0.1255-0.6156 0.3406-1.218 0.6912-1.743 0.7042-1.091 2.005-1.524 3.265-1.537zm-20.64-3.324c-0.9373 0.05757-1.761 0.9132-1.684 1.886-1.506-1.424-3.667-2.09-5.717-1.827-2.865 0.3111-5.202 2.635-6 5.335-0.8392 2.908-0.4915 6.311 1.471 8.706 1.755 2.229 4.956 3.244 7.64 2.25 0.9841-0.371 1.897-0.9551 2.607-1.735-0.0173 0.7696 0.5093 1.525 1.257 1.735 1.055 0.3492 2.357-0.3729 2.349-1.574 0.0188-4.234 2e-3 -8.465 7e-3 -12.7 0.1128-0.9457-0.5252-1.963-1.522-2.051-0.1362-0.02637-0.2742-0.03396-0.4081-0.02574zm-5.923 3.316c1.077 0.0073 2.152 0.4006 2.912 1.18 1.375 1.359 1.728 3.478 1.32 5.312-0.345 1.577-1.494 3.044-3.099 3.456-0.3809 0.1013-0.779 0.1472-1.173 0.1471-1.388 0.03799-2.735-0.7064-3.489-1.864-1.015-1.523-1.147-3.534-0.5662-5.243 0.5016-1.47 1.781-2.714 3.353-2.93 0.2446-0.03928 0.4941-0.06051 0.7426-0.05882z"/></svg>
